<?xml version="1.0" encoding="UTF-8"?>
<!-- Created with Inkscape (http://www.inkscape.org/) -->
<svg width="134.6mm" height="74.055mm" version="1.1" viewBox="0 0 134.6 74.055" xmlns="http://www.w3.org/2000/svg">
 <g transform="translate(-37.324 -106.97)">
  <g>
   <rect x="37.324" y="106.97" width="134.6" height="70.533" fill="#ccc" style="paint-order:fill markers stroke"/>
   <rect x="43.495" y="112.26" width="122.84" height="59.365" fill="#35354b"/>
   <rect x="39.962" y="177.42" width="6.5832" height="3.5219" fill="#666"/>
   <rect x="162.69" y="177.51" width="6.5832" height="3.5219" fill="#666"/>
   <rect x="48.785" y="115.79" width="26.047" height="17.927" fill="#f2f2f2"/>
   <rect x="83.265" y="115.9" width="76.988" height="50.21" fill="#1a1a1a" opacity=".82824" style="mix-blend-mode:screen"/>
   <rect x="48.982" y="143.21" width="25.653" height="23.013" fill="#999"/>
  </g>
  <rect x="48.947" y="143.2" width="25.623" height="2.0168" fill="#1d1515" fill-opacity=".30837" style="paint-order:stroke fill markers"/>
  <rect x="48.947" y="144.43" width="25.866" height=".80093" fill="#140000" fill-opacity=".30837" style="paint-order:stroke fill markers"/>
  <rect x="48.801" y="115.83" width="26.121" height="3.9936" fill="#f55" fill-opacity=".70849" style="paint-order:stroke fill markers"/>
  <rect x="50.556" y="121.21" width="22.611" height="3.5807" fill="#3d3d3d" fill-opacity=".30837" style="paint-order:stroke fill markers"/>
  <rect x="120.67" y="115.91" width="1.5516" height="50.186" fill="#808080" opacity=".85" style="paint-order:stroke fill markers"/>
  <g fill="#1a1a1a">
   <rect x="121.41" y="115.91" width=".10257" height="50.186" opacity=".85" style="paint-order:stroke fill markers"/>
   <rect x="120.74" y="140.78" width=".61455" height="3.7742" opacity=".85" style="paint-order:stroke fill markers"/>
   <rect x="121.58" y="140.78" width=".615" height="3.7742" opacity=".85" style="paint-order:stroke fill markers"/>
  </g>
  <g fill="#ccc">
   <rect x="160.59" y="115.9" width="1.5" height="3.7742" opacity=".85" style="paint-order:stroke fill markers"/>
   <rect x="160.43" y="162.32" width="1.5" height="3.7742" opacity=".85" style="paint-order:stroke fill markers"/>
   <rect x="81.562" y="162.36" width="1.5" height="3.7742" opacity=".85" style="paint-order:stroke fill markers"/>
   <rect x="81.513" y="115.84" width="1.5" height="3.7742" opacity=".85" style="paint-order:stroke fill markers"/>
  </g>
  <g fill="#666">
   <rect x="83.216" y="115.82" width="32.406" height="15.98" opacity=".85" style="paint-order:stroke fill markers"/>
   <rect x="83.259" y="134.99" width="21.125" height="31.157" opacity=".96565" style="paint-order:stroke fill markers"/>
   <rect transform="scale(-1,1)" x="-160.25" y="125.25" width="30.656" height="40.858" opacity=".85" style="paint-order:stroke fill markers"/>
  </g>
  <g fill="#c3ffff" fill-opacity=".5">
   <rect transform="matrix(.95567 .29444 -.29251 .95626 0 0)" x="137.96" y="107.27" width="11.8" height="2.1172" style="paint-order:stroke fill markers"/>
   <rect transform="matrix(.95567 .29444 -.29251 .95626 0 0)" x="141.3" y="112.42" width="11.8" height="2.1172" style="paint-order:stroke fill markers"/>
   <rect transform="matrix(.95567 .29444 -.29251 .95626 0 0)" x="167.22" y="75.851" width="11.8" height="2.1172" style="paint-order:stroke fill markers"/>
  </g>
 </g>
</svg>
